<svg id="Layer_1" enable-background="new 0 0 512.265 512.265" height="512" viewBox="0 0 512.265 512.265" width="512" xmlns="http://www.w3.org/2000/svg"><path d="m437.163 75.04c-100.045-100.047-261.996-100.062-362.052.007-92.685 92.697-98.464 236.437-22.808 335.922 47.223 62.097 122.263 101.296 204.42 101.296 135.973 0 255.417-110.368 255.417-256.207.001-68.38-26.627-132.666-74.977-181.018z" fill="#aaef68"/><path d="m481.884 319.351c-27.851 1.512-30.547.368-43.826-21.589-5.393-8.918-11.504-19.025-21.216-26.657-26.709-20.977-64.536-11.746-90.177 6.706-21.652 15.581-37.662 36.042-57.755 47.113-22.263 12.264-51.111 12.413-73.491.383-10.015-5.387-20.024-13.588-32.972-18.932-47.833-19.717-105.985 11.704-132.436 52.122-3.176 4.854-3.477 11.046-.786 16.185 44.381 84.737 131.33 137.376 226.914 137.376 108.688 0 205.82-68.899 241.702-171.446 3.76-10.737-4.6-21.867-15.957-21.261z" fill="#99d856"/><g><g><path d="m91.591 149.343c4.706-17.091 12.815-34.289 30.096-38.264 12.519-2.88 17.504 1.657 28.817-11.108 12.859-14.508 20.819-30.127 42.54-41.44 46.263-24.095 67.901 29.262 25.392 41.512-14.195 4.09-28.133 2.632-47.432 14.582-12.227 7.571-13.562 13.051-18.114 25.294-12.093 32.523-43.263 65.602-60.489 52.046-10.91-8.587-3.804-31.746-.81-42.622z" fill="#fff"/></g></g><g><g><path d="m288.141 272.058h-144c-8.836 0-16-7.164-16-16s7.164-16 16-16h144c8.836 0 16 7.164 16 16s-7.164 16-16 16z" fill="#5c8b2a"/></g></g><g><g><path d="m296.141 344.058c-14.126 0-21.421-17.206-11.313-27.313l60.686-60.687-60.686-60.687c-6.249-6.248-6.249-16.379 0-22.627 6.248-6.249 16.379-6.249 22.627 0l72 72c6.249 6.248 6.249 16.379 0 22.627l-72 72c-3.125 3.125-7.22 4.687-11.314 4.687z" fill="#5c8b2a"/></g></g></svg>